<?xml version="1.0" encoding="utf-8"?>
<!-- Generator: Adobe Illustrator 15.0.0, SVG Export Plug-In . SVG Version: 6.00 Build 0)  -->
<!DOCTYPE svg PUBLIC "-//W3C//DTD SVG 1.1//EN" "http://www.w3.org/Graphics/SVG/1.1/DTD/svg11.dtd">
<svg version="1.1" id="Layer_1" xmlns="http://www.w3.org/2000/svg" xmlns:xlink="http://www.w3.org/1999/xlink" x="0px" y="0px"
	 width="566px" height="570px" viewBox="0 0 566 570" style="enable-background:new 0 0 566 570;" xml:space="preserve">
<style type="text/css">
<![CDATA[
	.st0{display:inline;fill:#F7941E;fill-opacity:0.8;}
	.st1{fill:#27AAE1;fill-opacity:0.8;}
	.st2{fill:#F7941E;fill-opacity:0.8;}
	.st3{display:none;}
	.st4{display:inline;fill:#27AAE1;fill-opacity:0.8;}
]]>
</style>
<g class="st3">
	<path class="st4" d="M-18,114.829V584c0,0,389.182-3.076,386.104-233.817C365.029,119.443-18,114.829-18,114.829z"/>
	<path class="st0" d="M582,453.17V-16c0,0-389.181,3.076-386.104,233.816C198.973,448.557,582,453.17,582,453.17z"/>
</g>
<g class="st3">
	<path class="st4" d="M10,136.051v420.822c0,0,349.075-2.76,346.315-209.722C353.557,140.19,10,136.051,10,136.051z"/>
	<path class="st0" d="M553.912,432.771V11.95c0,0-349.075,2.759-346.315,209.721C210.357,428.632,553.912,432.771,553.912,432.771z"
		/>
</g>
<g class="st3">
	<path class="st4" d="M12,206v345.051c0,0,286.223-2.263,283.96-171.96C293.697,209.394,12,206,12,206z"/>
	<path class="st0" d="M553.912,355V9.95c0,0-286.222,2.262-283.959,171.959S553.912,355,553.912,355z"/>
</g>
<g class="st3">
	<path class="st4" d="M-18-16v380.376c0,0,315.525-2.494,313.031-189.565C292.537-12.258-18-16-18-16z"/>
	<path class="st0" d="M582,584V203.625c0,0-315.524,2.494-313.029,189.564C271.465,580.259,582,584,582,584z"/>
</g>
<g>
	<path class="st1" d="M12,12v345.051c0,0,286.223-2.263,283.96-171.96C293.697,15.394,12,12,12,12z"/>
	<path class="st2" d="M553.912,559V213.95c0,0-286.222,2.262-283.959,171.959S553.912,559,553.912,559z"/>
</g>
</svg>
