<?xml version="1.0" standalone="no"?>
<!DOCTYPE svg PUBLIC "-//W3C//DTD SVG 20010904//EN"
 "http://www.w3.org/TR/2001/REC-SVG-20010904/DTD/svg10.dtd">
<svg version="1.0" xmlns="http://www.w3.org/2000/svg"
 width="700.000000pt" height="700.000000pt" viewBox="0 0 700.000000 700.000000"
 preserveAspectRatio="xMidYMid meet">
<metadata>
Created by potrace 1.11, written by Peter Selinger 2001-2013
</metadata>
<g transform="translate(0.000000,700.000000) scale(0.100000,-0.100000)"
fill="#000000" stroke="none">
<path d="M339 6646 c0 -45 0 -3939 1 -3969 0 -17 8 -18 123 -13 136 7 218 13
292 21 28 2 75 7 105 10 30 3 71 7 90 10 19 3 55 7 80 10 63 8 213 31 260 40
14 3 41 7 60 10 102 17 303 61 440 96 172 45 523 158 528 171 2 4 9 8 15 8 41
0 369 162 516 255 444 280 715 662 785 1108 28 182 15 453 -30 632 -136 536
-560 960 -1249 1249 -130 55 -442 161 -532 181 -10 2 -81 20 -158 40 -123 32
-438 94 -550 109 -22 3 -60 8 -85 11 -25 3 -56 8 -70 10 -38 6 -210 24 -280
30 -52 4 -235 16 -297 20 l-43 2 -1 -41z"/>
<path d="M6496 4323 c-1 -1 -49 -5 -106 -8 -106 -6 -119 -7 -220 -18 -30 -4
-82 -9 -115 -13 -33 -3 -67 -8 -76 -9 -9 -2 -40 -6 -70 -10 -46 -6 -252 -39
-366 -59 -203 -37 -714 -180 -838 -236 -11 -5 -65 -27 -119 -50 -575 -240
-967 -592 -1136 -1020 -21 -53 -48 -136 -55 -169 -2 -9 -8 -37 -14 -63 -10
-42 -15 -78 -27 -173 -4 -39 -4 -261 0 -300 2 -16 7 -57 11 -90 17 -141 89
-360 163 -495 216 -393 621 -712 1182 -930 74 -29 144 -56 155 -60 59 -25 287
-92 426 -125 57 -14 122 -30 144 -36 22 -5 49 -11 61 -13 11 -3 79 -16 150
-29 71 -14 165 -31 209 -37 44 -6 91 -13 105 -15 165 -25 434 -50 631 -60 l69
-3 0 2014 0 2014 -81 -2 c-44 -2 -82 -4 -83 -5z"/>
</g>
</svg>
